<svg xmlns="http://www.w3.org/2000/svg" width="980" height="440" viewBox="0 0 980 440">
<rect width="100%" height="100%" fill="white"/>
<text x="490.0" y="28" text-anchor="middle" font-family="Arial" font-size="18" font-weight="700" fill="#20242a">V1 vs baseline latency speedup</text>
<text x="20" y="204.0" transform="rotate(-90 20 204.0)" text-anchor="middle" font-family="Arial" font-size="13" fill="#20242a">speedup (baseline / V1, higher is better)</text>
<line x1="88" y1="354.0" x2="950" y2="354.0" stroke="#d9dee7"/>
<text x="78" y="358.0" text-anchor="end" font-family="Arial" font-size="11" fill="#20242a">0.00</text>
<line x1="88" y1="279.0" x2="950" y2="279.0" stroke="#d9dee7"/>
<text x="78" y="283.0" text-anchor="end" font-family="Arial" font-size="11" fill="#20242a">0.74</text>
<line x1="88" y1="204.0" x2="950" y2="204.0" stroke="#d9dee7"/>
<text x="78" y="208.0" text-anchor="end" font-family="Arial" font-size="11" fill="#20242a">1.48</text>
<line x1="88" y1="129.0" x2="950" y2="129.0" stroke="#d9dee7"/>
<text x="78" y="133.0" text-anchor="end" font-family="Arial" font-size="11" fill="#20242a">2.21</text>
<line x1="88" y1="54.0" x2="950" y2="54.0" stroke="#d9dee7"/>
<text x="78" y="58.0" text-anchor="end" font-family="Arial" font-size="11" fill="#20242a">2.95</text>
<rect x="132.8" y="273.8" width="39.0" height="80.2" fill="#315f9f"/>
<text x="152.2" y="268.8" text-anchor="middle" font-family="Arial" font-size="10" fill="#20242a">0.79</text>
<rect x="348.2" y="99.8" width="39.0" height="254.2" fill="#315f9f"/>
<text x="367.8" y="94.8" text-anchor="middle" font-family="Arial" font-size="10" fill="#20242a">2.50</text>
<rect x="563.8" y="203.1" width="39.0" height="150.9" fill="#315f9f"/>
<text x="583.2" y="198.1" text-anchor="middle" font-family="Arial" font-size="10" fill="#20242a">1.49</text>
<rect x="779.2" y="255.6" width="39.0" height="98.4" fill="#315f9f"/>
<text x="798.8" y="250.6" text-anchor="middle" font-family="Arial" font-size="10" fill="#20242a">0.97</text>
<rect x="174.8" y="267.4" width="39.0" height="86.6" fill="#d96c2c"/>
<text x="194.2" y="262.4" text-anchor="middle" font-family="Arial" font-size="10" fill="#20242a">0.85</text>
<rect x="390.2" y="162.2" width="39.0" height="191.8" fill="#d96c2c"/>
<text x="409.8" y="157.2" text-anchor="middle" font-family="Arial" font-size="10" fill="#20242a">1.89</text>
<rect x="605.8" y="228.0" width="39.0" height="126.0" fill="#d96c2c"/>
<text x="625.2" y="223.0" text-anchor="middle" font-family="Arial" font-size="10" fill="#20242a">1.24</text>
<rect x="821.2" y="262.4" width="39.0" height="91.6" fill="#d96c2c"/>
<text x="840.8" y="257.4" text-anchor="middle" font-family="Arial" font-size="10" fill="#20242a">0.90</text>
<rect x="216.8" y="256.0" width="39.0" height="98.0" fill="#4f8a4b"/>
<text x="236.2" y="251.0" text-anchor="middle" font-family="Arial" font-size="10" fill="#20242a">0.96</text>
<rect x="432.2" y="236.3" width="39.0" height="117.7" fill="#4f8a4b"/>
<text x="451.8" y="231.3" text-anchor="middle" font-family="Arial" font-size="10" fill="#20242a">1.16</text>
<rect x="647.8" y="240.8" width="39.0" height="113.2" fill="#4f8a4b"/>
<text x="667.2" y="235.8" text-anchor="middle" font-family="Arial" font-size="10" fill="#20242a">1.11</text>
<rect x="863.2" y="250.5" width="39.0" height="103.5" fill="#4f8a4b"/>
<text x="882.8" y="245.5" text-anchor="middle" font-family="Arial" font-size="10" fill="#20242a">1.02</text>
<text x="195.8" y="380" text-anchor="middle" font-family="Arial" font-size="12" fill="#20242a">case0</text>
<text x="411.2" y="380" text-anchor="middle" font-family="Arial" font-size="12" fill="#20242a">cascade</text>
<text x="626.8" y="380" text-anchor="middle" font-family="Arial" font-size="12" fill="#20242a">hot/cold</text>
<text x="842.2" y="380" text-anchor="middle" font-family="Arial" font-size="12" fill="#20242a">branching</text>
<rect x="88" y="401" width="12" height="12" fill="#315f9f"/>
<text x="106" y="412" font-family="Arial" font-size="12" fill="#20242a">prefill total</text>
<rect x="298" y="401" width="12" height="12" fill="#d96c2c"/>
<text x="316" y="412" font-family="Arial" font-size="12" fill="#20242a">TTFT median</text>
<rect x="508" y="401" width="12" height="12" fill="#4f8a4b"/>
<text x="526" y="412" font-family="Arial" font-size="12" fill="#20242a">request median</text>
</svg>